<svg width="288.368652" height="39.078125" viewBox="0 0 288.369 39.0781" fill="none" xmlns="http://www.w3.org/2000/svg" xmlns:xlink="http://www.w3.org/1999/xlink">
	<desc>
			Created with Pixso.
	</desc>
	<defs/>
	<path id="Gadget Galaxy" d="M26.23 9.92L20.73 9.92C19.76 6.77 17.32 4.85 13.73 4.85C8.9 4.85 5.43 8.57 5.43 15.29C5.43 22.05 8.85 25.78 13.84 25.78C18.32 25.78 21.17 23.09 21.26 18.84L14.38 18.84L14.38 14.62L26.48 14.62L26.48 18.2C26.48 25.89 21.2 30.63 13.82 30.63C5.59 30.63 0 24.78 0 15.34C0 5.73 5.85 0 13.66 0C20.24 0 25.32 4.08 26.23 9.92ZM182.28 9.92L176.78 9.92C175.82 6.77 173.37 4.85 169.78 4.85C164.95 4.85 161.48 8.57 161.48 15.29C161.48 22.05 164.9 25.78 169.89 25.78C174.37 25.78 177.22 23.09 177.31 18.84L170.43 18.84L170.43 14.62L182.53 14.62L182.53 18.2C182.53 25.89 177.25 30.63 169.87 30.63C161.64 30.63 156.05 24.78 156.05 15.34C156.05 5.73 161.9 0 169.71 0C176.3 0 181.37 4.08 182.28 9.92ZM69.74 26.7C68.91 28.33 67.18 30.61 63.34 30.61C58.06 30.61 54.12 26.44 54.12 19.07C54.12 11.62 58.18 7.57 63.35 7.57C67.29 7.57 68.94 9.94 69.74 11.56L69.95 11.56L69.95 0.41L75.24 0.41L75.24 30.22L70.06 30.22L70.06 26.7L69.74 26.7ZM211.09 0.41L216.35 0.41L216.35 30.22L211.09 30.22L211.09 0.41ZM137.57 7.86L141.98 7.86L141.98 11.94L137.57 11.94L137.57 23.5C137.57 25.62 138.64 26.09 139.96 26.09C140.61 26.09 141.21 25.96 141.5 25.89L142.39 30C141.82 30.19 140.79 30.48 139.29 30.53C135.32 30.64 132.27 28.58 132.3 24.37L132.3 11.94L129.13 11.94L129.13 7.86L132.3 7.86L132.3 2.51L137.57 2.51L137.57 7.86ZM44.47 27.15C43.51 29.03 41.42 30.67 37.91 30.67C33.64 30.67 30.43 28.34 30.43 23.95C30.43 18.91 34.57 17.61 38.92 17.15C42.86 16.73 44.45 16.65 44.45 15.14L44.45 15.05C44.45 12.86 43.11 11.61 40.66 11.61C38.09 11.61 36.6 12.92 36.07 14.44L31.16 13.74C32.32 9.66 35.93 7.57 40.63 7.57C44.9 7.57 49.72 9.34 49.72 15.26L49.72 30.22L44.65 30.22L44.65 27.15L44.47 27.15ZM101.1 30.58C101.1 36.31 96.65 39.07 90.6 39.07C84.9 39.07 81.69 36.56 80.73 33.43L85.47 32.28C86.12 33.59 87.52 35.09 90.69 35.09C93.69 35.09 95.87 33.74 95.87 30.44L95.87 26.21L95.61 26.21C94.79 27.85 93 29.9 89.18 29.9C84.02 29.9 79.96 26.26 79.96 18.97C79.96 11.62 84.02 7.57 89.19 7.57C93.13 7.57 94.81 9.94 95.61 11.56L95.9 11.56L95.9 7.86L101.1 7.86L101.1 30.58ZM126.14 24.23C125.21 28.11 121.63 30.66 116.42 30.66C109.67 30.66 105.56 26.19 105.56 19.17C105.56 12.28 109.73 7.57 116.14 7.57C121.65 7.57 126.36 11.02 126.36 18.86L126.36 20.49L110.78 20.49C110.82 24.31 113.09 26.55 116.49 26.55C118.76 26.55 120.5 25.57 121.22 23.67L126.14 24.23ZM200.52 27.15C199.56 29.03 197.47 30.67 193.96 30.67C189.69 30.67 186.48 28.34 186.48 23.95C186.48 18.91 190.62 17.61 194.97 17.15C198.91 16.73 200.5 16.65 200.5 15.14L200.5 15.05C200.5 12.86 199.16 11.61 196.71 11.61C194.14 11.61 192.66 12.92 192.12 14.44L187.21 13.74C188.37 9.66 191.98 7.57 196.68 7.57C200.95 7.57 205.77 9.34 205.77 15.26L205.77 30.22L200.7 30.22L200.7 27.15L200.52 27.15ZM234.77 27.15C233.81 29.03 231.71 30.67 228.2 30.67C223.94 30.67 220.72 28.34 220.72 23.95C220.72 18.91 224.87 17.61 229.21 17.15C233.16 16.73 234.75 16.65 234.75 15.14L234.75 15.05C234.75 12.86 233.41 11.61 230.95 11.61C228.38 11.61 226.9 12.92 226.37 14.44L221.45 13.74C222.62 9.66 226.23 7.57 230.92 7.57C235.2 7.57 240.01 9.34 240.01 15.26L240.01 30.22L234.95 30.22L234.95 27.15L234.77 27.15ZM244.05 7.86L249.64 7.86L254.15 16.12L258.74 7.86L264.31 7.86L257.57 19.04L264.43 30.22L258.89 30.22L254.15 22.18L249.47 30.22L243.87 30.22L250.69 19.04L244.05 7.86ZM279.42 32.94C278.14 36.5 275.77 38.61 271.67 38.61C270.23 38.61 268.95 38.35 268.23 38.06L269.46 33.95C271.76 34.62 273.3 34.45 274.27 31.9L274.72 30.7L266.61 7.86L272.21 7.86L277.36 24.75L277.59 24.75L282.76 7.86L288.36 7.86L279.42 32.94ZM116.21 11.68C113.07 11.68 110.95 14.08 110.79 16.93L121.3 16.93C121.27 13.89 119.24 11.68 116.21 11.68ZM59.49 19.04C59.49 23.24 61.32 26.29 64.81 26.29C68.17 26.29 70.06 23.38 70.06 19.04C70.06 14.7 68.19 11.9 64.81 11.9C61.29 11.9 59.49 14.88 59.49 19.04ZM85.33 18.94C85.33 23.06 87.17 25.77 90.65 25.77C94.01 25.77 95.9 23.21 95.9 18.94C95.9 14.7 94.03 11.9 90.65 11.9C87.14 11.9 85.33 14.88 85.33 18.94ZM35.5 23.86C35.5 25.8 37.08 26.8 39.28 26.8C42.45 26.8 44.46 24.69 44.46 22.21L44.46 19.56C43.78 20.12 41.01 20.46 39.63 20.66C37.27 21 35.5 21.84 35.5 23.86ZM191.55 23.86C191.55 25.8 193.14 26.8 195.33 26.8C198.5 26.8 200.51 24.69 200.51 22.21L200.51 19.56C199.83 20.12 197.06 20.46 195.68 20.66C193.32 21 191.55 21.84 191.55 23.86ZM225.8 23.86C225.8 25.8 227.38 26.8 229.57 26.8C232.75 26.8 234.76 24.69 234.76 22.21L234.76 19.56C234.08 20.12 231.3 20.46 229.92 20.66C227.56 21 225.8 21.84 225.8 23.86Z" fill="#FFFFFF" fill-opacity="1.000000" fill-rule="evenodd"/>
</svg>
