<svg width="20.057617" height="20.061768" viewBox="0 0 20.0576 20.0618" fill="none" xmlns="http://www.w3.org/2000/svg" xmlns:xlink="http://www.w3.org/1999/xlink">
	<desc>
			Created with Pixso.
	</desc>
	<defs>
		<linearGradient x1="1.346703" y1="18.754562" x2="18.775578" y2="1.327831" id="paint_linear_12_23_0" gradientUnits="userSpaceOnUse">
			<stop stop-color="#FFDD55"/>
			<stop offset="0.500000" stop-color="#FF543E"/>
			<stop offset="1.000000" stop-color="#C837AB"/>
		</linearGradient>
	</defs>
	<path id="Vector" d="M1.3 1.39C-0.27 3.02 0.05 4.75 0.05 10.02C0.05 14.4 -0.71 18.78 3.29 19.82C4.53 20.14 15.59 20.14 16.83 19.81C18.5 19.39 19.85 18.04 20.03 15.68C20.06 15.36 20.06 4.7 20.03 4.36C19.84 1.86 18.29 0.41 16.26 0.12C15.79 0.05 15.7 0.03 13.31 0.03C4.83 0.03 2.98 -0.35 1.3 1.39Z" fill="url(#paint_linear_12_23_0)" fill-opacity="1.000000" fill-rule="nonzero"/>
	<path id="Vector" d="M10.05 2.64C7.03 2.64 4.15 2.37 3.06 5.19C2.6 6.35 2.67 7.86 2.67 10.03C2.67 11.93 2.61 13.71 3.06 14.86C4.15 17.68 7.05 17.41 10.05 17.41C12.95 17.41 15.94 17.71 17.05 14.86C17.5 13.69 17.43 12.2 17.43 10.03C17.43 7.14 17.59 5.28 16.19 3.88C14.78 2.47 12.86 2.64 10.05 2.64L10.05 2.64ZM9.39 3.97C15.7 3.96 16.51 3.26 16.06 13.01C15.9 16.46 13.28 16.08 10.05 16.08C4.17 16.08 4 15.91 4 10.02C4 4.07 4.47 3.98 9.39 3.97L9.39 3.97ZM13.99 5.2C13.5 5.2 13.11 5.6 13.11 6.09C13.11 6.57 13.5 6.97 13.99 6.97C14.48 6.97 14.88 6.57 14.88 6.09C14.88 5.6 14.48 5.2 13.99 5.2ZM10.05 6.24C7.96 6.24 6.26 7.93 6.26 10.03C6.26 12.12 7.96 13.82 10.05 13.82C12.15 13.82 13.84 12.12 13.84 10.03C13.84 7.93 12.15 6.24 10.05 6.24ZM10.05 7.57C13.31 7.57 13.31 12.49 10.05 12.49C6.8 12.49 6.79 7.57 10.05 7.57Z" fill="#FFFFFF" fill-opacity="1.000000" fill-rule="nonzero"/>
</svg>
