<svg width="20.000000" height="20.000000" viewBox="0 0 20 20" fill="none" xmlns="http://www.w3.org/2000/svg" xmlns:xlink="http://www.w3.org/1999/xlink">
	<desc>
			Created with Pixso.
	</desc>
	<defs/>
	<path id="Vector" d="M17.19 2.8C15.38 0.99 12.97 0 10.41 0C7.86 0 5.45 0.99 3.64 2.8C1.83 4.61 0.83 7.02 0.83 9.58C0.83 11.2 1.24 12.79 2.02 14.2L0 20L5.79 17.97C7.2 18.75 8.79 19.16 10.41 19.16C12.97 19.16 15.38 18.16 17.19 16.35C19 14.54 20 12.13 20 9.58C20 7.02 19 4.61 17.19 2.8ZM15.15 13.13L14.04 14.24C13.13 15.16 10.53 14.04 8.24 11.75C5.95 9.46 4.83 6.86 5.75 5.95L6.86 4.84C7.08 4.61 7.46 4.61 7.68 4.84L9.07 6.22C9.3 6.45 9.3 6.82 9.07 7.05L8.24 7.88C9.04 9.58 10.41 10.95 12.11 11.75L12.94 10.92C13.17 10.69 13.54 10.69 13.77 10.92L15.15 12.31C15.38 12.53 15.38 12.91 15.15 13.13Z" fill="#43D854" fill-opacity="1.000000" fill-rule="nonzero"/>
</svg>
