<svg width="22.000000" height="21.000000" viewBox="0 0 22 21" fill="none" xmlns="http://www.w3.org/2000/svg" xmlns:xlink="http://www.w3.org/1999/xlink">
	<desc>
			Created with Pixso.
	</desc>
	<defs/>
	<path id="Viber" d="M11 0C17.07 0 22 4.7 22 10.5C22 16.29 17.07 21 11 21C4.92 21 0 16.29 0 10.5C0 4.7 4.92 0 11 0ZM11.65 4.27C12.4 4.36 13.01 4.53 13.67 4.84C14.32 5.15 14.74 5.43 15.29 5.96C15.81 6.45 16.1 6.83 16.4 7.41C16.82 8.22 17.07 9.19 17.11 10.25C17.12 10.62 17.11 10.7 17.02 10.8C16.86 11 16.5 10.97 16.37 10.74C16.33 10.67 16.32 10.6 16.31 10.31C16.29 9.87 16.25 9.58 16.19 9.24C15.93 7.89 15.25 6.81 14.17 6.04C13.27 5.39 12.34 5.07 11.11 5.01C10.7 4.98 10.63 4.97 10.54 4.9C10.36 4.77 10.35 4.46 10.52 4.32C10.62 4.23 10.69 4.22 11.05 4.23C11.23 4.23 11.51 4.26 11.65 4.27ZM6.68 4.5C6.76 4.52 6.88 4.58 6.94 4.62C7.36 4.88 8.51 6.28 8.88 6.98C9.1 7.38 9.17 7.68 9.1 7.9C9.03 8.14 8.92 8.26 8.4 8.66C8.2 8.82 8 8.98 7.97 9.02C7.89 9.13 7.83 9.34 7.83 9.49C7.83 9.84 8.07 10.47 8.38 10.95C8.62 11.32 9.04 11.8 9.47 12.17C9.97 12.61 10.41 12.91 10.9 13.14C11.54 13.44 11.93 13.52 12.21 13.39C12.28 13.36 12.36 13.32 12.38 13.3C12.41 13.28 12.57 13.09 12.76 12.87C13.11 12.45 13.19 12.38 13.43 12.3C13.74 12.2 14.05 12.23 14.37 12.38C14.6 12.5 15.13 12.81 15.46 13.03C15.91 13.33 16.85 14.07 16.98 14.22C17.21 14.48 17.25 14.82 17.1 15.2C16.93 15.59 16.31 16.33 15.87 16.65C15.48 16.94 15.2 17.05 14.83 17.06C14.52 17.08 14.4 17.05 14.01 16.9C10.95 15.7 8.52 13.91 6.58 11.45C5.57 10.16 4.8 8.83 4.27 7.45C3.97 6.64 3.95 6.29 4.2 5.88C4.31 5.71 4.78 5.28 5.11 5.03C5.67 4.64 5.93 4.49 6.14 4.45C6.28 4.42 6.53 4.44 6.68 4.5ZM11.8 5.77C13.12 5.96 14.15 6.54 14.82 7.49C15.19 8.03 15.43 8.65 15.51 9.33C15.54 9.58 15.54 10.02 15.5 10.1C15.48 10.17 15.38 10.27 15.31 10.3C15.22 10.35 15.04 10.34 14.94 10.29C14.77 10.21 14.72 10.08 14.72 9.73C14.72 9.2 14.58 8.63 14.33 8.19C14.04 7.69 13.62 7.28 13.11 6.99C12.68 6.74 12.03 6.56 11.44 6.51C11.23 6.49 11.11 6.45 11.03 6.36C10.91 6.23 10.89 6.05 11 5.89C11.11 5.73 11.28 5.7 11.8 5.77ZM12.27 7.34C12.7 7.43 13.02 7.58 13.3 7.83C13.66 8.16 13.86 8.55 13.95 9.12C14.01 9.49 13.98 9.63 13.85 9.75C13.72 9.86 13.48 9.87 13.34 9.76C13.23 9.69 13.2 9.61 13.18 9.39C13.15 9.11 13.1 8.91 13.01 8.73C12.82 8.34 12.48 8.13 11.91 8.07C11.64 8.04 11.56 8.01 11.48 7.91C11.32 7.73 11.38 7.44 11.6 7.33C11.68 7.29 11.71 7.29 11.9 7.3C12.01 7.3 12.18 7.32 12.27 7.34Z" fill="#7F4DA0" fill-opacity="1.000000" fill-rule="evenodd"/>
</svg>
